<?xml version="1.0" standalone="no"?>
<!DOCTYPE svg PUBLIC "-//W3C//DTD SVG 20010904//EN"
 "http://www.w3.org/TR/2001/REC-SVG-20010904/DTD/svg10.dtd">
<svg version="1.0" xmlns="http://www.w3.org/2000/svg"
 width="830.000000pt" height="350.000000pt" viewBox="0 0 830.000000 350.000000"
 preserveAspectRatio="xMidYMid meet">

<g transform="translate(0.000000,350.000000) scale(0.100000,-0.100000)"
fill="#000000" stroke="none">
<path d="M0 1750 l0 -1750 4150 0 4150 0 0 1750 0 1750 -4150 0 -4150 0 0
-1750z m1790 1070 c300 -34 560 -183 741 -423 97 -129 159 -268 194 -436 22
-108 21 -313 -3 -426 -107 -498 -540 -848 -1047 -847 -135 0 -222 14 -343 54
-307 102 -554 345 -665 654 -78 216 -79 489 -3 710 159 468 636 770 1126 714z
m4440 -500 c74 -38 77 -159 5 -206 -29 -19 -94 -21 -125 -4 -12 6 -30 26 -40
43 -64 104 50 222 160 167z m550 -43 l35 -12 -2 -70 c-1 -38 -2 -73 -3 -77 0
-4 -33 -5 -72 -2 -65 6 -75 4 -91 -14 -10 -11 -21 -36 -24 -56 l-6 -36 120 0
c193 0 164 28 273 -260 52 -137 96 -247 97 -246 2 2 42 113 89 247 47 134 87
245 90 248 8 8 170 10 183 2 9 -6 -23 -100 -133 -385 -178 -462 -175 -454
-226 -510 -48 -52 -88 -68 -170 -68 -64 0 -169 28 -176 47 -3 6 9 42 26 79 25
56 33 67 48 61 81 -35 126 -29 158 20 16 25 14 31 -102 310 l-119 285 -72 0
-73 0 -1 -252 c-1 -233 -2 -279 -7 -316 -2 -10 -25 -12 -94 -10 l-93 3 -3 287
-2 287 -43 3 -42 3 0 80 0 80 41 3 41 3 7 60 c11 109 53 175 131 203 49 18
167 19 215 3z m-3181 -44 c90 -24 201 -87 201 -113 0 -15 -92 -141 -100 -138
-3 2 -35 20 -73 41 -74 43 -169 65 -229 53 -51 -9 -98 -55 -98 -96 0 -68 33
-91 205 -138 144 -40 194 -62 246 -109 58 -52 79 -102 78 -188 -1 -125 -48
-204 -155 -256 -61 -30 -78 -34 -173 -38 -118 -4 -187 8 -276 49 -68 31 -143
83 -152 106 -5 14 78 121 103 131 7 3 30 -9 51 -26 90 -72 241 -110 326 -82
45 15 87 63 87 100 0 63 -47 92 -217 136 -229 60 -316 140 -315 288 0 84 19
141 64 192 89 101 255 136 427 88z m2191 -33 c12 -7 15 -30 15 -99 l0 -90 95
-3 95 -3 3 -82 3 -83 -96 0 -95 0 -1 -172 c-2 -215 -2 -209 24 -232 22 -18 64
-18 140 0 l27 6 0 -76 0 -77 -46 -20 c-54 -25 -175 -27 -226 -6 -40 17 -82 61
-99 102 -8 19 -14 109 -17 252 l-4 222 -42 3 -41 3 0 80 0 80 43 3 42 3 0 88
c0 48 5 92 11 98 13 13 149 16 169 3z m-1374 -195 c175 -52 278 -240 245 -446
-22 -133 -96 -235 -210 -287 -106 -49 -265 -28 -333 45 l-23 25 -5 -149 -5
-148 -89 -3 c-65 -2 -92 1 -97 10 -5 7 -9 218 -9 470 0 529 -7 495 93 484 33
-3 71 -6 83 -6 21 0 24 -5 24 -41 l0 -41 41 36 c74 63 181 82 285 51z m854
-13 c32 -12 81 -44 113 -72 215 -192 147 -548 -124 -651 -196 -75 -422 14
-506 198 -79 173 -14 396 144 494 100 62 259 75 373 31z m994 -7 c8 -31 7
-691 -1 -711 -7 -19 -183 -20 -183 -1 -1 10 -1 140 0 730 0 4 40 7 89 7 87 0
89 -1 95 -25z m1406 12 c32 -16 70 -73 70 -106 0 -38 -35 -89 -74 -107 -102
-49 -208 72 -144 166 38 56 94 74 148 47z"/>
<path d="M1355 2254 c-129 -16 -202 -28 -277 -45 -72 -17 -92 -26 -113 -51
-35 -42 -34 -91 4 -129 35 -34 52 -35 163 -10 356 84 839 35 1123 -112 33 -18
71 -35 84 -39 37 -11 88 15 107 56 37 77 -19 132 -208 206 -211 82 -416 120
-673 124 -99 2 -193 2 -210 0z"/>
<path d="M1310 1880 c-131 -18 -252 -51 -277 -76 -31 -31 -30 -77 2 -109 29
-30 40 -30 147 -5 307 72 660 32 931 -105 49 -25 101 -45 116 -45 65 0 100 73
61 123 -47 60 -319 169 -505 202 -105 19 -381 28 -475 15z"/>
<path d="M1355 1534 c-94 -11 -186 -27 -232 -40 -41 -11 -53 -20 -61 -42 -5
-15 -6 -37 -1 -49 14 -38 40 -45 116 -29 191 40 426 45 578 12 92 -19 195 -57
279 -102 74 -39 107 -40 126 -3 20 36 8 71 -35 101 -92 63 -277 125 -438 147
-73 10 -262 13 -332 5z"/>
<path d="M4204 1836 c-77 -34 -134 -148 -119 -238 20 -116 90 -181 198 -181
48 0 65 5 99 29 52 36 81 92 86 164 8 104 -30 180 -109 220 -44 23 -110 25
-155 6z"/>
<path d="M5041 1837 c-46 -15 -105 -76 -119 -125 -17 -57 -14 -131 7 -177 31
-70 113 -125 186 -125 78 0 163 62 189 137 62 183 -86 346 -263 290z"/>
<path d="M7549 1961 c-64 -65 -20 -171 71 -171 33 0 48 6 71 29 64 65 20 171
-71 171 -33 0 -48 -6 -71 -29z m117 -26 c12 -16 12 -22 0 -41 -13 -19 -13 -24
0 -43 14 -19 13 -21 0 -21 -9 0 -21 9 -28 20 -7 11 -18 20 -25 20 -7 0 -13 -9
-13 -20 0 -11 -7 -20 -15 -20 -12 0 -15 14 -15 64 l0 64 41 -2 c27 -2 47 -9
55 -21z"/>
<path d="M7600 1911 c0 -15 5 -19 21 -16 27 5 33 11 24 24 -11 19 -45 13 -45
-8z"/>
</g>
</svg>
